<!--
  - This file is part of FlowDrop Qt.
  -
  - For license and copyright information please follow this link:
  - https://github.com/noseam-env/flowdrop-qt/blob/master/LEGAL
  -->

<svg height="24" width="24" xmlns="http://www.w3.org/2000/svg" viewBox="0 0 24 24">
    <path fill="currentColor" d="M20,18c1.1,0 1.99,-0.9 1.99,-2L22,5c0,-1.1 -0.9,-2 -2,-2L4,3c-1.1,0 -2,0.9 -2,2v11c0,1.1 0.9,2 2,2L0,18c0,1.1 0.9,2 2,2h20c1.1,0 2,-0.9 2,-2h-4zM5,5h14c0.55,0 1,0.45 1,1v9c0,0.55 -0.45,1 -1,1L5,16c-0.55,0 -1,-0.45 -1,-1L4,6c0,-0.55 0.45,-1 1,-1zM12,19c-0.55,0 -1,-0.45 -1,-1s0.45,-1 1,-1 1,0.45 1,1 -0.45,1 -1,1z"/>
</svg>
