<!--
  - This file is part of FlowDrop Qt.
  -
  - For license and copyright information please follow this link:
  - https://github.com/noseam-env/flowdrop-qt/blob/master/LEGAL
  -->

<svg height="24px" viewBox="0 0 24 24" width="24px" xmlns="http://www.w3.org/2000/svg">
    <path fill="currentColor" d="M16,1L8,1C6.34,1 5,2.34 5,4v16c0,1.66 1.34,3 3,3h8c1.66,0 3,-1.34 3,-3L19,4c0,-1.66 -1.34,-3 -3,-3zM13.5,21h-3c-0.28,0 -0.5,-0.22 -0.5,-0.5s0.22,-0.5 0.5,-0.5h3c0.28,0 0.5,0.22 0.5,0.5s-0.22,0.5 -0.5,0.5zM17,18L7,18L7,4h10v14z"/>
</svg>
