<svg width="256" height="256" viewBox="0 0 256 256" fill="none" xmlns="http://www.w3.org/2000/svg">
<g clip-path="url(#clip0_310_603)">
<g clip-path="url(#clip1_310_603)">
<path d="M128 187.973C161.123 187.973 187.974 161.122 187.974 128C187.974 94.8774 161.123 68.0264 128 68.0264C94.8777 68.0264 68.0266 94.8774 68.0266 128C68.0266 161.122 94.8777 187.973 128 187.973Z" stroke="currentColor" stroke-width="20.1829" stroke-miterlimit="10" stroke-linecap="round"/>
<path d="M43.7768 95.1373L20.728 72.0935C13.9185 65.2809 10.0933 56.0429 10.0933 46.4107C10.0933 36.7785 13.9185 27.5405 20.728 20.728C27.5405 13.9185 36.7785 10.0933 46.4107 10.0933C56.0429 10.0933 65.2809 13.9185 72.0935 20.728L95.1373 43.7768" stroke="currentColor" stroke-width="20.1829" stroke-miterlimit="10" stroke-linecap="round"/>
<path d="M160.863 43.7768L183.907 20.728C190.719 13.9185 199.957 10.0933 209.589 10.0933C219.222 10.0933 228.46 13.9185 235.272 20.728C242.082 27.5405 245.907 36.7785 245.907 46.4107C245.907 56.0429 242.082 65.2809 235.272 72.0935L212.223 95.1373" stroke="currentColor" stroke-width="20.1829" stroke-miterlimit="10" stroke-linecap="round"/>
<path d="M95.1373 212.223L72.0935 235.272C65.2809 242.082 56.0429 245.907 46.4107 245.907C36.7785 245.907 27.5405 242.082 20.728 235.272C13.9185 228.46 10.0933 219.222 10.0933 209.59C10.0933 199.957 13.9185 190.719 20.728 183.907L43.7768 160.863" stroke="currentColor" stroke-width="20.1829" stroke-miterlimit="10" stroke-linecap="round"/>
<path d="M212.223 160.863L235.272 183.907C242.082 190.719 245.907 199.957 245.907 209.59C245.907 219.222 242.082 228.46 235.272 235.272C228.46 242.082 219.222 245.907 209.589 245.907C199.957 245.907 190.719 242.082 183.907 235.272L160.863 212.223" stroke="currentColor" stroke-width="20.1829" stroke-miterlimit="10" stroke-linecap="round"/>
</g>
</g>
<defs>
<clipPath id="clip0_310_603">
<rect width="256" height="256" fill="currentColor"/>
</clipPath>
<clipPath id="clip1_310_603">
<rect width="256" height="256" fill="currentColor"/>
</clipPath>
</defs>
</svg>
